<svg xmlns="http://www.w3.org/2000/svg" xmlns:xlink="http://www.w3.org/1999/xlink" id="Logo" x="0px" y="0px" viewBox="0 0 400 113.8" style="enable-background:new 0 0 400 113.8;" xml:space="preserve"><style type="text/css">	.st0{fill:url(#SVGID_1_);}	.st1{fill:url(#SVGID_00000053529395868724645360000007840167080634217864_);}	.st2{fill:url(#SVGID_00000073716247712574434290000004762098466010207164_);}	.st3{fill:url(#SVGID_00000063590850228028665500000018414591842300539825_);}	.st4{fill:url(#SVGID_00000034810503886480907080000010431933872236613777_);}	.st5{fill:url(#SVGID_00000042698482307844743200000009559626370890450356_);}	.st6{fill:url(#SVGID_00000098211861152369478560000017589220892924928415_);}</style><g>	<linearGradient id="SVGID_1_" gradientUnits="userSpaceOnUse" x1="-19.1035" y1="46.0366" x2="386.2837" y2="41.4299">		<stop offset="0" style="stop-color:#7FFF94"></stop>		<stop offset="1" style="stop-color:#7FE3FF"></stop>	</linearGradient>	<path class="st0" d="M31,76.4H14.2l27.7-62.5h14.4l27.6,62.5H67.1l-4.3-10.2H35.2L31,76.4z M40.5,53.1h17.1L49,32.3L40.5,53.1z"></path>			<linearGradient id="SVGID_00000077317665006944277140000010797318050903479200_" gradientUnits="userSpaceOnUse" x1="-18.9891" y1="56.1012" x2="386.398" y2="51.4945">		<stop offset="0" style="stop-color:#7FFF94"></stop>		<stop offset="1" style="stop-color:#7FE3FF"></stop>	</linearGradient>	<path style="fill:url(#SVGID_00000077317665006944277140000010797318050903479200_);" d="M132.6,75.6c-4.9,0.6-9.8,1.1-14.7,1.5  c-4.9,0.4-9.3,0.5-13.3,0.5c-2.7,0-5.1-0.3-7.4-1c-2.2-0.7-4.1-1.7-5.7-3.1c-1.6-1.4-2.8-3.1-3.7-5.3c-0.9-2.2-1.4-4.7-1.4-7.7V32  h14.9v25.2c0,3,0.7,5.2,2,6.3c1.3,1.2,3.1,1.7,5.4,1.7c1.2,0,2.6,0,4-0.1s3.1-0.2,5-0.3V32h14.9V75.6z"></path>			<linearGradient id="SVGID_00000017510524433483933030000003969450716239458488_" gradientUnits="userSpaceOnUse" x1="-18.8611" y1="67.3621" x2="386.526" y2="62.7555">		<stop offset="0" style="stop-color:#7FFF94"></stop>		<stop offset="1" style="stop-color:#7FE3FF"></stop>	</linearGradient>	<path style="fill:url(#SVGID_00000017510524433483933030000003969450716239458488_);" d="M161.5,30.7c2.9,0,5.4,0.1,7.6,0.2  c2.2,0.1,4.3,0.3,6.3,0.5c2,0.2,4,0.5,5.9,0.7c2,0.3,4.2,0.5,6.6,0.8v42.9c0,3.7-0.6,7-1.7,10c-1.1,3-2.8,5.5-5,7.6  c-2.2,2.1-4.9,3.7-8.2,4.9c-3.3,1.2-7.1,1.7-11.5,1.7c-2.5,0-5.1-0.2-7.9-0.7c-2.7-0.5-5.5-1.2-8.2-2l2.1-11.3  c2.6,0.5,5,0.9,7.2,1.3c2.2,0.4,4.3,0.5,6.3,0.5c7.7,0,11.8-3.7,12.1-11.1c-2.4,0.2-4.5,0.4-6.3,0.4c-1.8,0-3.8,0-5.9,0  c-2.9,0-5.6-0.5-8.2-1.5c-2.6-1-4.9-2.5-6.9-4.5c-2-2-3.6-4.4-4.8-7.3c-1.2-2.9-1.8-6.2-1.8-9.9c0.1-3.5,0.6-6.6,1.6-9.5  c1-2.9,2.5-5.3,4.4-7.4c1.9-2,4.2-3.6,6.9-4.8C154.9,31.2,158,30.7,161.5,30.7z M164.1,42.6c-3.7,0-6.3,1.1-8,3.2  c-1.7,2.2-2.5,5-2.5,8.4c0,1.5,0.2,2.9,0.7,4.3c0.5,1.3,1.2,2.4,2.1,3.4c0.9,0.9,1.9,1.7,3.2,2.2c1.2,0.5,2.6,0.8,4,0.8  c1.2,0,2.5,0,3.9-0.1c1.4-0.1,3.3-0.2,5.6-0.5V43.1c-1.5-0.1-3-0.2-4.4-0.3C167.2,42.7,165.7,42.6,164.1,42.6z"></path>			<linearGradient id="SVGID_00000056420138312283111230000012157134638789257135_" gradientUnits="userSpaceOnUse" x1="-18.9748" y1="57.3572" x2="386.4123" y2="52.7505">		<stop offset="0" style="stop-color:#7FFF94"></stop>		<stop offset="1" style="stop-color:#7FE3FF"></stop>	</linearGradient>	<path style="fill:url(#SVGID_00000056420138312283111230000012157134638789257135_);" d="M243.1,75.6c-4.9,0.6-9.8,1.1-14.7,1.5  c-4.9,0.4-9.3,0.5-13.3,0.5c-2.7,0-5.1-0.3-7.4-1c-2.2-0.7-4.1-1.7-5.7-3.1c-1.6-1.4-2.8-3.1-3.7-5.3c-0.9-2.2-1.4-4.7-1.4-7.7V32  h14.9v25.2c0,3,0.7,5.2,2,6.3c1.3,1.2,3.1,1.7,5.4,1.7c1.2,0,2.6,0,4-0.1c1.5-0.1,3.1-0.2,5-0.3V32h14.9V75.6z"></path>			<linearGradient id="SVGID_00000141433368003222880940000014098153468417615289_" gradientUnits="userSpaceOnUse" x1="-18.9727" y1="57.5404" x2="386.4144" y2="52.9338">		<stop offset="0" style="stop-color:#7FFF94"></stop>		<stop offset="1" style="stop-color:#7FE3FF"></stop>	</linearGradient>	<path style="fill:url(#SVGID_00000141433368003222880940000014098153468417615289_);" d="M252.6,62.6c3.8,1.4,7.3,2.4,10.3,3  c3,0.6,5.5,0.9,7.4,0.9c1.8,0,3.3-0.2,4.5-0.6c1.2-0.4,1.7-1.1,1.7-2.1c0-0.7-0.3-1.3-0.9-1.7c-0.6-0.4-1.3-0.8-2.3-1.1  c-0.9-0.3-2-0.5-3.2-0.7c-1.2-0.2-2.4-0.4-3.7-0.7c-2.6-0.5-4.8-1.2-6.7-1.9c-1.9-0.7-3.5-1.6-4.8-2.7c-1.3-1.1-2.3-2.3-2.9-3.8  c-0.6-1.5-1-3.2-1-5.3c0-4.9,1.8-8.6,5.3-11.2c3.5-2.6,8.3-3.9,14.5-3.9c3.2,0,6.6,0.3,10.1,1c3.5,0.6,6.5,1.4,9,2.2l-2.8,11  c-3.4-1-6.4-1.8-9.2-2.3c-2.8-0.5-5.1-0.8-6.9-0.8c-3.5,0-5.3,1-5.3,3.1c0,0.7,0.2,1.3,0.7,1.7c0.5,0.4,1.1,0.7,2,1  c0.9,0.3,1.9,0.5,3.2,0.7c1.2,0.2,2.6,0.5,4,0.8c2.4,0.5,4.5,1.1,6.4,1.7c1.9,0.7,3.5,1.5,4.8,2.6c1.3,1,2.3,2.3,3.1,3.8  c0.7,1.5,1.1,3.3,1.1,5.5c0,5.1-1.8,8.8-5.5,11.3c-3.7,2.5-8.5,3.7-14.6,3.7c-2.9,0-6.2-0.3-9.7-0.9c-3.6-0.6-7.3-1.6-11.1-3  L252.6,62.6z"></path>			<linearGradient id="SVGID_00000052070295858311080030000007698037002250282378_" gradientUnits="userSpaceOnUse" x1="-19.046" y1="51.0904" x2="386.3411" y2="46.4837">		<stop offset="0" style="stop-color:#7FFF94"></stop>		<stop offset="1" style="stop-color:#7FE3FF"></stop>	</linearGradient>	<path style="fill:url(#SVGID_00000052070295858311080030000007698037002250282378_);" d="M332.7,75.9c-1.3,0.4-2.5,0.7-3.6,0.9  c-1.1,0.2-2.2,0.4-3.2,0.5c-1.1,0.2-2.2,0.3-3.3,0.3c-1.1,0.1-2.4,0.1-3.8,0.1c-5.5,0-9.8-1.6-12.8-4.8c-3-3.2-4.4-7.9-4.4-14V45.3  h-8.5V32h8.5V16.9h14.8V32h13.6v13.3h-13.6v12.2c0,2.2,0.5,3.9,1.4,5.2c0.9,1.3,2.6,1.9,4.9,1.9c1.1,0,2.3,0,3.6-0.1  c1.3-0.1,3-0.3,5-0.6L332.7,75.9z"></path>			<linearGradient id="SVGID_00000127754754526185256400000003790957502199248262_" gradientUnits="userSpaceOnUse" x1="-18.9627" y1="58.4257" x2="386.4245" y2="53.819">		<stop offset="0" style="stop-color:#7FFF94"></stop>		<stop offset="1" style="stop-color:#7FE3FF"></stop>	</linearGradient>	<path style="fill:url(#SVGID_00000127754754526185256400000003790957502199248262_);" d="M360.7,30.3c3.7,0,7.1,0.6,10.2,1.7  c3.1,1.1,5.7,2.7,8,4.8c2.2,2.1,3.9,4.6,5.2,7.5c1.2,2.9,1.8,6.2,1.8,9.7c0,3.6-0.6,6.9-1.8,9.8c-1.2,2.9-2.9,5.4-5.2,7.5  c-2.2,2.1-4.9,3.7-8,4.9c-3.1,1.2-6.5,1.7-10.2,1.7s-7.1-0.6-10.2-1.7s-5.7-2.8-8-4.9c-2.2-2.1-3.9-4.6-5.2-7.5  c-1.2-2.9-1.8-6.2-1.8-9.8c0-3.5,0.6-6.8,1.8-9.7c1.2-2.9,2.9-5.4,5.2-7.5c2.2-2.1,4.9-3.7,8-4.8C353.6,30.9,357,30.3,360.7,30.3z   M360.7,65.2c3.2,0,5.9-1,7.9-3.1c2-2,3.1-4.8,3.1-8.2c0-3.3-1-5.9-3.1-8c-2-2-4.7-3-7.9-3c-3.2,0-5.9,1-7.9,3c-2,2-3.1,4.7-3.1,8  c0,3.4,1,6.1,3.1,8.2C354.8,64.2,357.5,65.2,360.7,65.2z"></path></g></svg>